DataType=double
version=3
OpenSimVersion=4.4-2022-07-23-0e9fedc
endheader
time	Glut_Max_l	Glut_Med_l	Rect_Fem_l	Vast_Lat_l	Bice_Fem_l	Tibi_Ant_l	Gast_Med_l	Sol_l	Gast_Lat_l	Pero_Lon_l	Glut_Max_r	Glut_Med_r	Rect_Fem_r	Vast_Lat_r	Bice_Fem_r	Tibi_Ant_r	Gast_Med_r	Sol_r	Gast_Lat_r	Pero_Lon_r
6.28	0.1011592247468599	0.188133220897636	0.01811537073558063	0.06508318166238036	0.11956144281248	0.05899022739428358	-0.2073579917104018	0.009413346857556215	-0.1440885168656019	-0.05149565136956446	-0.01573417621317112	0.008920183396954181	0.01353254539855639	-0.01835986885416094	0.008852953544788501	0.01448144599884943	-0.09539645427839621	0.1781204904834471	0.1627199693807574	0.07595549996539842
6.281000000000001	0.1051337113496886	0.1975408933620981	0.01989724873168893	0.07016514615131372	0.1216863568803916	0.06643957031687758	-0.1873797862341861	0.01044007853564627	-0.1336839814464597	-0.04457470611106589	-0.01116854635109407	0.01226667441503626	0.01500432958705665	-0.01621914196596312	0.009358170706324827	0.01479761097884786	-0.08590279384264608	0.1845620351093073	0.1656937928613833	0.08184168649997182
6.282	0.1091100039592841	0.2069770712796558	0.02169329056614173	0.07530307468042099	0.1238006729359817	0.07379465219672487	-0.1675466496143918	0.01146237869009672	-0.1233320521353988	-0.0376935369307265	-0.006618498237628164	0.01559187191929003	0.01645399486167228	-0.01409051624894144	0.009862471671222037	0.01511525094789466	-0.07644284081873624	0.191042669975805	0.1686622749736148	0.08768540096981563
6.283	0.1130859301702864	0.2164363014315271	0.02350276222844293	0.08049494153967145	0.1259026382270135	0.08104949217718986	-0.1478708348910156	0.01247958779607354	-0.113039159396162	-0.03085609408643896	-0.002086582208910458	0.01889360693198449	0.01788056852332637	-0.01197533206999023	0.01036555430269978	0.01543419125520829	-0.06702212846509313	0.1975597199713776	0.1716232573239526	0.09348286636883359
6.284	0.1170593359812814	0.2259131064907706	0.02532492130995097	0.0857386751328605	0.1279905100730224	0.08819821757141943	-0.1283643722331874	0.01349105461067118	-0.1028116501032821	-0.02406623942622095	0.002424682571019013	0.02216973892668122	0.01928310570398864	-0.009874912976651724	0.0108671184437298	0.01575425645685344	-0.05764613414498109	0.2041105047675307	0.1745745844399956	0.09923035723027311
6.285	0.1210280899656798	0.2354019930291228	0.02715901799430633	0.09103216053957193	0.1300625591313979	0.09523507407580115	-0.1090390499574261	0.01449613733249689	-0.09265577785448577	-0.01732773914127914	0.006912811800662861	0.02541815907642132	0.02066069076011347	-0.007790563749173998	0.01136686638267057	0.0160752706062794	-0.04832027167751927	0.2106923431436474	0.1775141073537345	0.1049242049585375
6.286	0.1249900874433392	0.2448974595538899	0.02900429604819093	0.09637324214227846	0.1321170726734432	0.1021544357261921	-0.08990639614535265	0.01549420473952311	-0.08257769359216495	-0.01064425675193795	0.01137535963724454	0.02863679343097825	0.02201243861233061	-0.005723568502049757	0.01186450331467745	0.01639705754507364	-0.03904988388610812	0.2173025572636128	0.1804396871874806	0.110560803064616
6.287	0.128943254641132	0.2543940045503535	0.03085999380931937	0.1017597263122875	0.1341523578603749	0.1089508145571382	-0.07097766092294176	0.01648463730091357	-0.07258343657171065	-0.004019346353349061	0.01580992218775928	0.03182360601383689	0.02333749602891125	-0.003675188840941171	0.0123597377976647	0.01671944119285327	-0.02984023536859532	0.2239384768855231	0.1833491987308408	0.1161366122941712
6.288	0.1328855528304245	0.2638861345050388	0.03272534516904236	0.1071893841487135	0.1361667450090289	0.115618869930399	-0.05226379945449479	0.01746682825891955	-0.06267892570861656	0.00254355385485882	0.02021414088493213	0.03497660183015971	0.02463504285066141	-0.001646662080252504	0.01285228220163276	0.01704224583525795	-0.02069650551172382	0.2305974434868093	0.1862405339981174	0.1216481656375953
6.289000000000001	0.1368149824292585	0.2733683718852413	0.03459958054725838	0.1126599542651081	0.1381585908369059	0.1221534175051513	-0.03377545569546642	0.01844018467732755	-0.05286995133029918	0.009041127733290872	0.02458570573896249	0.03809382977765455	0.0259042931549851	0.0003608004740042419	0.01334185315021089	0.01736529640901386	-0.01162378177040826	0.237276814287779	0.189111605756062	0.1270920732116344
6.29	0.1407295870568808	0.282835263050466	0.03648192785751826	0.1181691456187253	0.1401262816762225	0.1285494378269914	-0.01552294693983367	0.01940412845335686	-0.04316216735314211	0.01547018704238793	0.0289223584568163	0.04117338545296392	0.02714449635690213	0.002346015172010212	0.0138281719533172	0.01768841878302765	-0.002627053230276878	0.2439739661568658	0.1919603510120752	0.1324650270024694
6.291	0.1446274575281229	0.292281386072018	0.03837161346033372	0.1237146403776191	0.1420682366469206	0.1348020845158033	0.002483750809627486	0.02035809729034859	-0.03356108390053682	0.02182767693963723	0.03322189542189331	0.04421341384690606	0.02835493824481297	0.004307827595172356	0.01431096502990607	0.01801144003445046	0.006288795530231928	0.2506862993807899	0.194784734452833	0.1377638054603571
6.292	0.1485067357749734	0.3017013584379375	0.04026786310278419	0.1292940968208276	0.1439829107791191	0.1409066920341229	0.0202350166258145	0.0213015456290068	-0.02407206037354589	0.02811068111947476	0.03748217052810508	0.04721211192260998	0.02953494194881028	0.006245114055547613	0.01478996431984313	0.01833418871864029	0.01511899026407631	0.2574112412824254	0.197582751823071	0.1429852779361041
6.293	0.1523656186825573	0.3110898446216969	0.04216990284255227	0.1349051522668295	0.1458687980761633	0.146858783018629	0.03772159757890568	0.02223394553529668	-0.01470029898208683	0.0343164265837679	0.04170109786354528	0.05016773107137957	0.03068386883938804	0.008156783017364824	0.01526490768401592	0.01865649513195669	0.02385887255409177	0.2641462496685694	0.2003524332339756	0.1481264089498773
6.294	0.1562023618266778	0.3204415634942062	0.04407695995452755	0.1405454260252936	0.1477244345100883	0.1526540751584794	0.05493462078120827	0.02315478754335362	-0.005450838741126225	0.04044228803408809	0.04587665423990266	0.05307857944204133	0.03180111935456217	0.01004177643882159	0.01573553929185501	0.01897819156634286	0.03250390497579958	0.2708888160891202	0.2030918463902963	0.1531842622832898
6.295	0.1600152831000687	0.32975129555933	0.0459882638181506	0.1462125223669291	0.1495484009418368	0.158288487605678	0.07186560454468263	0.02406358145193225	0.003671450066747228	0.04648579188046583	0.05000688156459809	0.05594302414045593	0.03288613375375875	0.01189907103273289	0.01620160999550932	0.01929911255467923	0.04104967591668342	0.2776364688885003	0.2057990997248848	0.1581560048863826
6.296	0.1638027662144986	0.3390138899930726	0.04790304678377967	0.1519040335059774	0.1513393259589384	0.1637581469045669	0.08850646864410147	0.02495985707307893	0.01266187096384811	0.0524446198644664	0.05408988905335475	0.05875949329659741	0.03393839279734054	0.01372767944494684	0.01666287768999053	0.01961909510593254	0.04949190404619788	0.2843867760295514	0.2084723454289015	0.1630389105919683
6.297000000000001	0.1675632640658362	0.3482242714659933	0.0498205450165583	0.1576175425895404	0.1530958886236786	0.1690593924297148	0.1048495436827164	0.0258431649318863	0.02151590588905243	0.05831661229694816	0.05812385528148021	0.06152647799702689	0.03495741835121337	0.01552665134972454	0.01711910765867498	0.01993797892919247	0.05782644243292099	0.2911373476696058	0.2111097823654787	0.1678303636307457
6.298	0.1712953019490994	0.357377446727572	0.05173999931649886	0.1633506266875606	0.1548168211252088	0.1741887813237263	0.1208875795615501	0.02671307691639413	0.03022921935485325	0.06409977091264142	0.06210703007251091	0.06424253408078838	0.03594277391644096	0.017295074461528	0.01757007290362303	0.02025560664578471	0.06604928230737969	0.2978858384680411	0.2137096588542548	0.1725278619416944
6.299	0.1749974806103853	0.3664685109304616	0.05366065591369343	0.1691008597769208	0.1565009113296696	0.1791430929288721	0.1366137530577769	0.02756918687691816	0.03879766215792133	0.06979226134469656	0.06603773622308584	0.06690628379689816	0.03689406508416513	0.01903207546291524	0.01801555446023474	0.02057182398875084	0.07415655647108324	0.3046299496044301	0.21627027531398	0.177129020273589
6.3	0.1786684791224933	0.3754926536718835	0.05558176723766643	0.174865815712912	0.1581470052231445	0.1839193327091485	0.1520216745215875	0.02841111117428767	0.04721727465270729	0.07539241522281415	0.06991437106304151	0.06951641732181274	0.03781093991644397	0.02073682084853047	0.01845534169579619	0.0208864799890647	0.08214454235411348	0.3113674304866715	0.2187899867505232	0.1816315730748618
6.301	0.1823070575711357	0.3844451647288297	0.05750259265990878	0.1806430711812546	0.1597540092428666	0.1885147356622924	0.1671053937038663	0.02923848917663705	0.05548428959868765	0.08089873189884934	0.07373540784980541	0.07207169413560383	0.03869308925394081	0.02240851768548805	0.01888923259148321	0.02119942714799715	0.09000966472514509	0.3180960801296018	0.2212672050783601	0.1860333771701272
